<?xml version="1.0" encoding="UTF-8"?>
<svg width="238px" height="52px" viewBox="0 0 238 52" version="1.1" xmlns="http://www.w3.org/2000/svg" xmlns:xlink="http://www.w3.org/1999/xlink">
    <!-- Generator: Sketch 50.2 (55047) - http://www.bohemiancoding.com/sketch -->
    <title>Logo_Composit_Black_RU</title>
    <desc>Created with Sketch.</desc>
    <defs></defs>
    <g id="Logo_Composit_Black_RU" stroke="none" stroke-width="1" fill="none" fill-rule="evenodd">
        <g id="-LogoComposit_Black_RU" transform="translate(0.000000, 4.000000)">
            <g id="Group-2" fill-rule="nonzero">
                <path d="M42.6449573,6.04879212 C41.6209661,3.63480226 39.5747711,1.80235322 37.0845629,1.05658819 C35.3936008,0.633787798 33.6517119,0.450300023 31.8922422,0.511794416 L12.0902999,0.511486251 C10.3483822,0.450300554 8.60649327,0.633788333 6.93759633,1.05053142 C4.41927637,1.80416689 2.36919337,3.64371159 1.36125114,6.03043707 C0.710873778,7.97896771 0.424650492,10.0306078 0.517394335,12.1052463 L0.516889944,31.9171244 C0.424639898,33.9693457 0.710863336,36.0210207 1.3476929,37.9336271 C2.36919976,40.3562985 4.41928142,42.1958349 6.91553084,42.9434117 C8.60649336,43.3662114 10.3483823,43.5496992 12.1078518,43.4882056 L31.9096916,43.4885138 C33.6516091,43.5497 35.393498,43.3662122 37.0623955,42.9494684 C39.5807115,42.1958371 41.6307937,40.3563003 42.6387401,37.9695835 C43.289128,36.0210207 43.5753514,33.9693458 43.4825969,31.8946714 L43.4831015,12.0827876 C43.5750835,10.0370516 43.2909778,7.99185383 42.6449573,6.04879212 Z" id="_Path_2" stroke="#E5E5E5" fill="#FFFFFF"></path>
                <g id="Group" transform="translate(8.000000, 5.000000)">
                    <ellipse id="Oval" fill="#FFCC00" cx="13.6104892" cy="20.3774287" rx="13.5971977" ry="13.5805274"></ellipse>
                    <path d="M20.4190464,6.53462636 L20.4191618,19.2393466 L20.3891321,19.2493799 C20.3891431,19.2547747 20.3891508,19.2601912 20.3891508,19.2656309 C20.3891508,20.5082746 20.2989602,21.6673722 20.1304778,22.2589441 C19.3201819,25.1040395 16.698987,27.1676924 13.590552,27.1676924 C9.8357895,27.1676924 6.83182759,24.1375442 6.83182759,20.3873851 C6.83182759,16.637226 9.8357895,13.6070778 13.590552,13.6070778 C15.3597108,13.6070778 16.9710383,14.2820055 18.1805001,15.3881256 C18.5756524,15.7495144 18.9279079,16.1569306 19.2287557,16.6018738 C19.1453032,16.2036508 19.0630877,15.7026643 19.0630877,15.2744427 L19.0630877,5.4282284 L19.0630877,0 L27.9121361,2.70814036 L27.9121361,8.84128177 L20.4190464,6.53462636 Z" id="Combined-Shape" fill="#FF3333"></path>
                </g>
            </g>
            <g id="Group-2" transform="translate(55.000000, 7.000000)" fill="#222222">
                <g id="Яндекс-Музыка">
                    <path d="M11.8,18.04 L9.24,18.04 L4.36,29 L0.8,29 L6.16,17.28 C3.64,16 1.96,13.68 1.96,9.4 C1.96,3.4 5.76,0.4 10.28,0.4 L14.88,0.4 L14.88,29 L11.8,29 L11.8,18.04 Z M11.8,15.48 L11.8,3 L10.16,3 C7.68,3 5.28,4.64 5.28,9.4 C5.28,14 7.48,15.48 10.16,15.48 L11.8,15.48 Z M45.76,26.44 L45.76,32.96 L42.96,32.96 L42.96,29 L34.32,29 L34.32,32.96 L31.52,32.96 L31.52,26.44 L32.76,26.44 C34.6,22.16 34.8,15.92 34.8,10.56 L34.8,8.84 L44.16,8.84 L44.16,26.44 L45.76,26.44 Z M59.32,27.64 C58.04,28.64 56.36,29.28 54.36,29.28 C50.2,29.28 47.64,25.96 47.64,19.76 C47.64,13.28 49.44,8.56 53.72,8.56 C57.08,8.56 59.28,11.08 59.28,17.92 L59.28,19.64 L50.88,19.64 C50.88,24.2 52.16,26.6 54.64,26.6 C56.4,26.6 57.8,25.8 58.6,25.24 L59.32,27.64 Z M26.64,8.84 L29.72,8.84 L29.72,29 L26.64,29 L26.64,19.96 L22,19.96 L22,29 L18.88,29 L18.88,8.84 L22,8.84 L22,17.4 L26.64,17.4 L26.64,8.84 Z M70.92,29 L65.6,18.96 L65.6,29 L62.48,29 L62.48,8.84 L65.6,8.84 L65.6,18.16 L70.44,8.84 L73.6,8.84 L68.6,18.32 L74.32,29 L70.92,29 Z M81.64,29.28 C77.32,29.28 74.72,25.8 74.72,18.92 C74.72,12.6 77.16,8.56 81.88,8.56 C83.68,8.56 84.72,9.04 85.6,9.6 L85.16,12.56 C84.32,11.84 83.12,11.16 81.84,11.16 C79.6,11.16 78,13.68 78,18.76 C78,23.8 79.2,26.68 81.72,26.68 C83.24,26.68 84.4,26.08 85.12,25.44 L85.84,27.76 C84.76,28.68 83.48,29.28 81.64,29.28 Z M41.08,26.44 L41.08,11.36 L37.6,11.36 L37.6,11.72 C37.6,15.96 37.4,22.16 35.72,26.44 L41.08,26.44 Z M53.72,11.12 C51.8,11.12 51.12,13.48 50.92,17.08 L56.08,17.08 C56.08,13.64 55.52,11.12 53.72,11.12 Z M97.28,3.6 C97.28,5.16 97.24,7.48 97.16,9.44 L96.32,29 L94.68,29 L95.92,0.4 L98.12,0.4 L102.4,18.04 C102.76,19.44 102.96,20.8 103.08,22 L103.16,22 C103.28,20.8 103.52,19.44 103.88,18.04 L108.28,0.4 L110.52,0.4 L111.76,29 L109.84,29 L109,9.28 C108.88,7.04 108.92,5.32 108.92,3.56 L108.8,3.56 C108.56,5.36 108.28,7.04 107.84,8.72 L103.84,24.52 L102.28,24.52 L98.32,8.72 C97.92,7.16 97.6,5.56 97.4,3.6 L97.28,3.6 Z M116.36,35.4 C115.92,35.4 115.6,35.36 115.32,35.32 L115.12,33.56 C115.44,33.64 115.84,33.72 116.36,33.72 C117.72,33.72 118.68,32.4 119.28,30.16 L119.44,29.56 L114.44,8.84 L116.32,8.84 L119.52,22 C119.88,23.52 120.16,25 120.36,26.56 L120.48,26.56 C120.76,24.96 121.08,23.48 121.44,22 L124.56,8.84 L126.24,8.84 L121.08,30.04 C120.4,32.76 119.2,35.4 116.36,35.4 Z M132.6,29.4 C129.36,29.4 127.8,27.16 127.8,27.16 L128.44,25.6 C128.44,25.6 129.8,27.76 132.56,27.76 C134.64,27.76 136.32,26.28 136.32,23.36 C136.32,20.84 135.08,19.12 132.08,19.12 L130.4,19.12 L130.4,17.6 L131.88,17.6 C134.2,17.6 135.84,16.2 135.84,13.44 C135.84,11.4 134.76,10.08 132.8,10.08 C130.96,10.08 129.64,11.12 128.76,12.36 L128.28,10.56 C129.16,9.4 130.64,8.44 132.8,8.44 C135.96,8.44 137.64,10.44 137.64,13.4 C137.64,15.36 136.84,17.16 134.64,18.24 C137.16,19.16 138.24,21.12 138.24,23.32 C138.24,27.24 135.68,29.4 132.6,29.4 Z M141.56,29 L141.56,8.84 L143.44,8.84 L143.44,16.32 L144.92,16.32 C148.76,16.32 151.24,18.4 151.24,22.6 C151.24,26.88 148.6,29 144.8,29 L141.56,29 Z M155.24,8.84 L155.24,29 L153.4,29 L153.4,8.84 L155.24,8.84 Z M144.84,17.8 L143.44,17.8 L143.44,27.52 L144.64,27.52 C147.48,27.52 149.4,26.12 149.4,22.64 C149.4,19.24 147.72,17.8 144.84,17.8 Z M161.6,18.56 L161.6,29 L159.72,29 L159.72,8.84 L161.6,8.84 L161.6,18.32 L168.36,8.84 L170.2,8.84 L163.56,18.2 L170.68,29 L168.6,29 L161.6,18.56 Z M176.92,27.88 C178.8,27.88 180.12,26.08 180.84,23.92 L180.84,18.36 L178.68,18.36 C175.36,18.36 173.76,19.88 173.76,23.4 C173.76,26.24 175,27.88 176.92,27.88 Z M181.4,29 C181.24,28.48 181.04,27.72 180.92,26.28 C179.96,28.2 178.52,29.4 176.52,29.4 C173.8,29.4 171.92,27.24 171.92,23.56 C171.92,19.24 174.28,17 178.64,17 L180.84,17 L180.84,14.48 C180.84,11.4 179.68,10.08 177.48,10.08 C175.76,10.08 174.2,10.88 173.24,12.28 L172.72,10.48 C173.52,9.44 175.2,8.44 177.48,8.44 C180.8,8.44 182.68,10.28 182.68,14.28 L182.68,25.28 C182.68,26.68 182.88,28.24 183.12,29 L181.4,29 Z"></path>
                </g>
            </g>
        </g>
    </g>
</svg>