<?xml version="1.0" encoding="UTF-8"?>
<!--Generator: Apple Native CoreSVG 175.5-->
<!DOCTYPE svg
PUBLIC "-//W3C//DTD SVG 1.1//EN"
       "http://www.w3.org/Graphics/SVG/1.1/DTD/svg11.dtd">
<svg version="1.1" xmlns="http://www.w3.org/2000/svg" xmlns:xlink="http://www.w3.org/1999/xlink" width="21.9141" height="26.0907">
 <g>
  <rect height="26.0907" opacity="0" width="21.9141" x="0" y="0"/>
  <path d="M0 13.04C0 19.0341 4.97363 23.997 10.957 23.997C16.9512 23.997 21.9141 19.0341 21.9141 13.04C21.9141 7.75481 18.0576 3.27532 13.0303 2.28704L13.0303 0.761646C13.0303-0.00104966 12.5039-0.205151 11.9238 0.213794L8.49707 2.6093C8.00293 2.95305 7.99219 3.46868 8.49707 3.82317L11.9131 6.22942C12.5039 6.65911 13.0303 6.45501 13.0303 5.68157L13.0303 4.15618C17.0908 5.08001 20.0771 8.68938 20.0771 13.04C20.0771 18.1103 16.0273 22.1708 10.957 22.1708C5.88672 22.1708 1.81543 18.1103 1.82617 13.04C1.83691 9.98918 3.31934 7.2929 5.60742 5.66008C6.04785 5.32708 6.1875 4.82219 5.91895 4.37102C5.65039 3.93059 5.05957 3.81243 4.58691 4.17766C1.82617 6.18645 0 9.43059 0 13.04Z" fill="#ffffff" fill-opacity="0.85"/>
  <path d="M10.8496 17.5732C12.6328 17.5732 13.8037 16.4238 13.8037 14.6943C13.8037 13.1152 12.7402 11.9872 11.2041 11.9872C10.5273 11.9872 9.78613 12.3202 9.50684 12.8681L9.56055 12.8681L9.75391 10.4404L12.9658 10.4404C13.2881 10.4404 13.5566 10.1825 13.5566 9.81731C13.5566 9.45208 13.2881 9.21575 12.9658 9.21575L9.52832 9.21575C8.96973 9.21575 8.6582 9.53801 8.61523 10.1073L8.37891 13.2011C8.33594 13.7382 8.61523 13.996 9.07715 13.996C9.43164 13.996 9.59277 13.9316 9.89355 13.6952C10.3125 13.3193 10.6348 13.1689 11.0645 13.1689C11.9023 13.1689 12.4609 13.7812 12.4609 14.7157C12.4609 15.6611 11.7949 16.3486 10.9141 16.3486C10.2695 16.3486 9.73242 15.9833 9.45312 15.4247C9.29199 15.1454 9.09863 14.995 8.83008 14.995C8.47559 14.995 8.22852 15.2529 8.22852 15.6181C8.22852 15.7685 8.26074 15.9081 8.31445 16.0478C8.60449 16.8212 9.5498 17.5732 10.8496 17.5732Z" fill="#ffffff" fill-opacity="0.85"/>
 </g>
</svg>
