<?xml version="1.0" encoding="UTF-8"?>
<!--Generator: Apple Native CoreSVG 175.5-->
<!DOCTYPE svg
PUBLIC "-//W3C//DTD SVG 1.1//EN"
       "http://www.w3.org/Graphics/SVG/1.1/DTD/svg11.dtd">
<svg version="1.1" xmlns="http://www.w3.org/2000/svg" xmlns:xlink="http://www.w3.org/1999/xlink" width="21.9141" height="26.0837">
 <g>
  <rect height="26.0837" opacity="0" width="21.9141" x="0" y="0"/>
  <path d="M0 13.0365C0 19.0306 4.97363 23.9935 10.957 23.9935C16.9512 23.9935 21.9141 19.0306 21.9141 13.0365C21.9141 9.42712 20.0879 6.18298 17.3271 4.17419C16.8545 3.80895 16.2637 3.92712 15.9951 4.36755C15.7266 4.81872 15.8662 5.3236 16.3066 5.65661C18.5947 7.28942 20.0771 9.98571 20.0879 13.0365C20.0986 18.1068 16.0273 22.1674 10.957 22.1674C5.88672 22.1674 1.83691 18.1068 1.83691 13.0365C1.83691 8.68591 4.82324 5.07653 8.88379 4.1527L8.88379 5.68884C8.88379 6.45153 9.41016 6.65563 10.001 6.23669L13.4277 3.83044C13.9111 3.49743 13.9219 2.98181 13.4277 2.62731L10.0117 0.221063C9.41016-0.208624 8.88379-0.00452292 8.88379 0.768915L8.88379 2.28356C3.85645 3.27184 0 7.75134 0 13.0365Z" fill="#ffffff" fill-opacity="0.85"/>
  <path d="M10.7959 17.5697C12.5791 17.5697 13.75 16.4203 13.75 14.6908C13.75 13.1117 12.6865 11.9838 11.1504 11.9838C10.4736 11.9838 9.73242 12.3168 9.45312 12.8646L9.50684 12.8646L9.7002 10.4369L12.9121 10.4369C13.2344 10.4369 13.5029 10.1791 13.5029 9.81384C13.5029 9.4486 13.2344 9.21227 12.9121 9.21227L9.47461 9.21227C8.91602 9.21227 8.60449 9.53454 8.56152 10.1039L8.3252 13.1976C8.28223 13.7347 8.56152 13.9925 9.02344 13.9925C9.37793 13.9925 9.53906 13.9281 9.83984 13.6918C10.2588 13.3158 10.5811 13.1654 11.0107 13.1654C11.8486 13.1654 12.4072 13.7777 12.4072 14.7123C12.4072 15.6576 11.7412 16.3451 10.8604 16.3451C10.2158 16.3451 9.67871 15.9799 9.39941 15.4213C9.23828 15.142 9.04492 14.9916 8.77637 14.9916C8.42188 14.9916 8.1748 15.2494 8.1748 15.6146C8.1748 15.765 8.20703 15.9047 8.26074 16.0443C8.55078 16.8177 9.49609 17.5697 10.7959 17.5697Z" fill="#ffffff" fill-opacity="0.85"/>
 </g>
</svg>
