<?xml version="1.0" encoding="UTF-8"?>
<!DOCTYPE svg PUBLIC "-//W3C//DTD SVG 1.1//EN" "http://www.w3.org/Graphics/SVG/1.1/DTD/svg11.dtd">
<!-- Creator: CorelDRAW 2020 (64-Bit) -->
<svg xmlns="http://www.w3.org/2000/svg" xml:space="preserve" width="17.4032mm" height="16.6038mm" version="1.1"
     style="shape-rendering:geometricPrecision; text-rendering:geometricPrecision; image-rendering:optimizeQuality; fill-rule:evenodd; clip-rule:evenodd"
     viewBox="0 0 265.83 253.62"
>
 <defs>
  <style type="text/css">
   <![CDATA[
    .str0 {stroke:#FF2E02;stroke-width:0;stroke-miterlimit:22.9256}
    .fil0 {fill:#DC2E02}
   ]]>
  </style>
 </defs>
    <g id="Слой_x0020_1">
  <metadata id="CorelCorpID_0Corel-Layer"/>
        <path class="fil0"
              d="M129.87 250.03c-65.13,-41.03 -141.77,-99.81 -120.35,-182.87l27.66 27.85c4.88,48.37 68.46,102.98 100.01,123.45 4.14,-2.56 8.7,-5.63 13.53,-9.15l21.12 21.26c-9.53,7.05 -19.27,13.75 -28.95,20.1 -6.15,4.03 -5.62,4.02 -13.03,-0.64zm-103.55 -216.42c10.38,-11.08 25.25,-18.89 43.62,-22.09 31.41,-5.46 47.3,18.14 66.9,19.34 19.6,-1.21 35.5,-24.81 66.9,-19.34 29.12,5.07 46.93,20.08 55.2,42.95 21.98,60.75 -11.69,112.17 -59.18,153.74l-21.47 -21.61c40.22,-37.09 79.22,-92.14 45.75,-131.96 -10.06,-11.97 -30.18,-16.07 -44.12,-8.84 -12.89,6.69 -31.24,23.37 -44.59,22.71 -19.74,-0.98 -26.91,-14.84 -41.59,-22.71 -13.94,-7.23 -31.27,-4.25 -43.56,9.4 -0.39,0.43 -0.75,0.87 -1.12,1.31l-22.75 -22.91z"/>
        <path class="fil0 str0"
              d="M6.48 7.76l1.39 -1.38c6.56,-6.51 17.25,-6.46 23.76,0.1l204.98 206.36c6.51,6.55 6.46,17.25 -0.1,23.76l-1.39 1.38c-6.56,6.51 -17.25,6.46 -23.76,-0.1l-204.98 -206.36c-6.51,-6.56 -6.47,-17.26 0.1,-23.76z"/>
 </g>
</svg>
