<?xml version="1.0" encoding="UTF-8"?>
<!DOCTYPE svg PUBLIC "-//W3C//DTD SVG 1.1//EN" "http://www.w3.org/Graphics/SVG/1.1/DTD/svg11.dtd">
<!-- Creator: CorelDRAW 2020 (64-Bit) -->
<svg xmlns="http://www.w3.org/2000/svg" xml:space="preserve" width="17.0203mm" height="15.9032mm" version="1.1"
     style="shape-rendering:geometricPrecision; text-rendering:geometricPrecision; image-rendering:optimizeQuality; fill-rule:evenodd; clip-rule:evenodd"
     viewBox="0 0 1491.94 1394.02"
>
 <defs>
  <style type="text/css">
   <![CDATA[
    .fil0 {fill:#747474}
   ]]>
  </style>
 </defs>
    <g id="Слой_x0020_1">
  <metadata id="CorelCorpID_0Corel-Layer"/>
        <path class="fil0"
              d="M711.73 1373.43c-393.23,-247.76 -859.65,-608.17 -666.78,-1125.11 46.66,-125.06 161.11,-215.47 322.87,-243.62 180.25,-31.35 271.45,104.07 383.94,111.01 112.49,-6.93 203.7,-142.37 383.94,-111.01 167.1,29.07 269.3,115.25 316.78,246.5 173.28,478.95 -256.1,856.89 -665.98,1125.92 -35.26,23.14 -32.28,23.08 -74.77,-3.69zm42.03 -181.19c247.69,-153.13 760.68,-628.02 498.47,-940.04 -57.73,-68.7 -173.22,-92.21 -253.19,-50.74 -73.96,38.37 -179.28,134.13 -255.89,130.35 -113.26,-5.61 -154.42,-85.18 -238.67,-130.35 -79.97,-41.47 -179.45,-24.38 -250,53.94 -275.71,306.05 265.35,785.04 499.27,936.84z"/>
 </g>
</svg>
