<?xml version="1.0" encoding="utf-8"?>
<!-- Generator: Adobe Illustrator 23.0.1, SVG Export Plug-In . SVG Version: 6.00 Build 0)  -->
<svg version="1.1" id="Layer_1" xmlns="http://www.w3.org/2000/svg" xmlns:xlink="http://www.w3.org/1999/xlink" x="0px" y="0px"
	 viewBox="0 0 742 102" style="enable-background:new 0 0 742 102;" xml:space="preserve">
<style type="text/css">
	.st0{fill:#FCCA00;}
	.st1{fill:#FC3F1D;}
	.st2{fill:#FFFFFF;}
</style>
<path class="st0" d="M332.2,13c6.9-5.1,15.1-8.2,23.6-9v14.1c-5.5,0.7-10.8,2.8-15.3,6.2c-5.6,4.2-9.8,10.1-11.8,16.8
	c-2,6.7-1.9,13.9,0.5,20.5c2.4,6.6,6.8,12.3,12.6,16.2c5.8,3.9,12.8,5.8,19.8,5.5c7-0.3,13.7-2.9,19.2-7.3c5.4-4.4,9.3-10.5,11-17.3
	c1.2-4.7,1.3-9.7,0.4-14.4l11.9-9.5l0-0.1c3.2,8.8,3.7,18.4,1.4,27.5c-2.5,9.7-8,18.4-15.8,24.7c-7.8,6.3-17.4,10-27.4,10.5
	c-10,0.5-19.9-2.3-28.2-7.9c-8.3-5.6-14.6-13.7-18-23.1c-3.4-9.4-3.6-19.7-0.7-29.3S324.2,19,332.2,13z"/>
<path class="st1" d="M395.1,19.6l0,0.1l-7.9,12.6c-2.9-4.3-6.7-7.8-11.3-10.3v28.6c0,8.8-7.1,15.9-15.9,15.9
	c-8.8,0-15.9-7.1-15.9-15.9c0-8.8,7.1-15.9,15.9-15.9c3.3,0,6.3,1,8.9,2.7V4.6C379.3,6.6,388.4,12,395.1,19.6z"/>
<path class="st2" d="M40.5,85.8h12.3V15.4H35C17,15.4,7.6,24.6,7.6,38.2C7.6,49,12.8,55.4,22,62L6,85.8h13.3l17.8-26.7L30.9,55
	c-7.5-5.1-11.1-9-11.1-17.5c0-7.5,5.3-12.6,15.3-12.6h5.5V85.8z M201.6,82.4v-9.8c-3.7,2.5-10,4.8-15.9,4.8
	c-8.8,0-12.2-4.2-12.7-12.7h29.1v-6.4c0-17.7-7.8-24.4-19.9-24.4c-14.7,0-21.7,11.2-21.7,26.7c0,17.7,8.7,26.3,24.1,26.3
	C192.4,86.8,198,84.8,201.6,82.4z M277,86.8c5.6,0,9.5-1,12.5-3.1v-9.8c-3,2.1-6.7,3.4-11.8,3.4c-8.6,0-12.2-6.7-12.2-17.2
	c0-11,4.4-16.7,12.3-16.7c4.7,0,9.2,1.6,11.7,3.1V36.2c-2.5-1.4-7-2.4-13-2.4c-15.4,0-23.4,11-23.4,26.6
	C253.1,77.4,260.9,86.8,277,86.8z M91.1,34.8V55H75V34.8H62.9v51H75V64.5h16.1v21.3h12.1v-51H91.1z M157.6,76.3h-5.4V34.8h-35.2v4.4
	c0,12.5-0.8,28.6-5.1,37.1h-3.8v21.2h11.1V85.8h27.1v11.7h11.1V76.3z M240.1,85.8h13.7l-19.4-27.5l17-23.5h-12.2l-17,23.5V34.8
	h-12.1v51h12.1v-25L240.1,85.8z M182,43.3c6,0,7.8,5,7.8,11.4v1H173C173.3,47.6,176.2,43.3,182,43.3z M140.2,76.3h-17
	c3.3-7.7,4.3-21.6,4.3-30.4v-1.5h12.8V76.3z"/>
<path class="st2" d="M456.6,85.7h10.1l14.4-53.2v53.2h11.6V15.2h-15.9l-14.3,51.9l-14.1-51.9h-16.2v70.4h10V32.5L456.6,85.7z"/>
<path class="st2" d="M509.3,101.4c11.2,0,15.4-8,18.9-18.4l15.9-48.2h-11.7L521.2,73L510,34.7h-12.7l17.5,53.2c-1.3,2.4-3.2,4-6.6,4
	c-2.2,0-4.2-0.7-5.5-2v9.8C502.8,99.6,504.6,101.4,509.3,101.4z"/>
<path class="st2" d="M561.7,77.1c-6.2,0-12.3-2.2-15.5-4.7v9.8c2.3,1.9,8.2,4.4,16.9,4.4c12.9,0,19.7-5.8,19.7-16
	c0-6-3.8-10-10.4-11.5c6.3-2,8.9-6.5,8.9-12.2c0-8.6-6.8-13.4-17.7-13.4c-7.9,0-13.1,2.4-16,4.3v9.8c3.2-2.1,7.7-4.6,14.3-4.6
	c4.5,0,7.3,2.1,7.3,5.9c0,4-2.4,6.1-7.4,6.1h-7.6v9.1h7.6c6.2,0,8.6,1.8,8.6,6.3C570.3,74.6,567.3,77.1,561.7,77.1z"/>
<path class="st2" d="M590.8,34.7v51h18.3c11.9,0,20.3-6.1,20.3-18c0-11.4-7.5-17.3-20.1-17.3h-6.5V34.7H590.8z M633.9,34.7v51H646
	v-51H633.9z M608.5,76.1h-5.6V59.8h5.9c5.2,0,8.2,2.3,8.2,8.2C617,73.9,613.6,76.1,608.5,76.1z"/>
<path class="st2" d="M686,85.7h13.7l-19.4-27.5l17-23.5h-12.2l-17,23.5V34.7h-12.1v51h12.1v-25L686,85.7z"/>
<path class="st2" d="M740.7,50.9c0-12.4-6.3-17-19.1-17c-8,0-14.3,2.5-17.9,4.7v10c3.2-2.4,10.3-5.1,16.5-5.1c5.8,0,8.4,2,8.4,7.5
	v2.8h-1.9c-18.4,0-26.7,6.1-26.7,16.4c0,10.3,6.3,16.1,15.6,16.1c7.1,0,10.1-2.3,12.5-4.8h0.5c0.1,1.3,0.5,3,0.9,4.1h11.8
	c-0.4-4.2-0.6-8.3-0.6-12.5V50.9z M728.6,73.5c-1.5,2.2-4.4,4.1-8.6,4.1c-5.1,0-7.6-3-7.6-7.6c0-6,4.2-8.1,14.5-8.1h1.7V73.5z"/>
</svg>
