<?xml version="1.0" encoding="utf-8"?>
<!-- Generator: Adobe Illustrator 23.0.1, SVG Export Plug-In . SVG Version: 6.00 Build 0)  -->
<svg version="1.1" id="Layer_1" xmlns="http://www.w3.org/2000/svg" xmlns:xlink="http://www.w3.org/1999/xlink" x="0px" y="0px"
	 viewBox="0 0 957 130" style="enable-background:new 0 0 957 130;" xml:space="preserve">
<style type="text/css">
	.st0{fill:#FCCA00;}
	.st1{fill:#FC3F1D;}
</style>
<path class="st0" d="M425.5,16.5C434.4,10,444.9,6,455.9,5v18.1c-7.1,0.9-13.8,3.6-19.6,7.9c-7.2,5.4-12.6,12.9-15.2,21.5
	s-2.4,17.8,0.6,26.3c3,8.5,8.7,15.8,16.2,20.8c7.5,5,16.4,7.5,25.4,7.1c9-0.4,17.6-3.7,24.6-9.4c7-5.7,11.9-13.5,14.1-22.2
	c1.5-6.1,1.7-12.4,0.5-18.5l15.2-12.2l0-0.1c4.1,11.3,4.7,23.6,1.8,35.3c-3.2,12.5-10.2,23.6-20.2,31.7c-10,8.1-22.3,12.9-35.1,13.5
	c-12.8,0.6-25.6-2.9-36.2-10.1c-10.7-7.2-18.8-17.6-23.1-29.7c-4.3-12.1-4.6-25.3-0.9-37.6C407.6,35,415.2,24.2,425.5,16.5z"/>
<path class="st1" d="M506.2,25l0.1,0.2l-10.2,16.1c-3.7-5.5-8.6-10-14.4-13.3v36.7c0,11.3-9.1,20.4-20.4,20.4
	c-11.3,0-20.4-9.1-20.4-20.4s9.1-20.4,20.4-20.4c4.2,0,8.1,1.3,11.4,3.5v-42C485.9,8.4,497.6,15.3,506.2,25z"/>
<path d="M51.3,109.8h15.7V19.4H44.2c-23,0-35.1,11.8-35.1,29.3c0,13.9,6.6,22.1,18.5,30.5L7,109.8h17l22.9-34.2L39,70.2
	c-9.6-6.5-14.3-11.6-14.3-22.5c0-9.6,6.8-16.1,19.6-16.1h7V109.8z M354.6,111.1c7.1,0,12.2-1.3,16-4V94.4c-3.9,2.7-8.6,4.4-15.1,4.4
	c-11.1,0-15.6-8.6-15.6-22.1c0-14.2,5.6-21.5,15.7-21.5c6,0,11.8,2.1,14.9,4V46.2c-3.2-1.8-9-3.1-16.6-3.1c-19.8,0-30,14.2-30,34.1
	C324,99,334,111.1,354.6,111.1z M257.9,105.3V92.7c-4.8,3.2-12.9,6.1-20.4,6.1c-11.3,0-15.6-5.3-16.2-16.2h37.3v-8.2
	c0-22.7-10-31.3-25.5-31.3c-18.9,0-27.8,14.4-27.8,34.2c0,22.8,11.2,33.8,30.9,33.8C246.1,111.1,253.4,108.5,257.9,105.3z
	 M116.2,44.4v25.9H95.5V44.4H80.1v65.4h15.5V82.5h20.7v27.3h15.5V44.4H116.2z M201.5,97.5h-6.9V44.4h-45.1V50c0,16-1,36.7-6.5,47.6
	h-4.8v27.2h14.3v-14.9h34.7v14.9h14.3V97.5z M307.3,109.8h17.5L300,74.5l21.8-30.2h-15.6l-21.8,30.2V44.4H269v65.4h15.5V77.6
	L307.3,109.8z M232.8,55.3c7.7,0,10,6.4,10,14.6v1.3h-21.6C221.6,60.7,225.4,55.3,232.8,55.3z M179.1,97.5h-21.8
	c4.3-9.9,5.5-27.7,5.5-39v-1.9h16.4V97.5z"/>
<path d="M585.1,109.8h13l18.5-68.2v68.2h14.8V19.4H611L592.6,86l-18.1-66.6h-20.8v90.3h12.9V41.5L585.1,109.8z M652.7,129.9
	c14.4,0,19.8-10.3,24.2-23.7l20.4-61.9h-15l-14.4,49.1l-14.4-49.1h-16.2l22.5,68.2c-1.7,3.1-4.2,5.1-8.5,5.1c-2.9,0-5.3-0.9-7-2.6
	v12.6C644.3,127.7,646.6,129.9,652.7,129.9z M719.8,98.8c-7.9,0-15.7-2.9-19.9-6v12.6c3,2.5,10.5,5.6,21.7,5.6
	c16.5,0,25.2-7.4,25.2-20.5c0-7.7-4.8-12.9-13.4-14.7c8.1-2.6,11.4-8.3,11.4-15.6c0-11.1-8.7-17.2-22.8-17.2
	c-10.1,0-16.8,3.1-20.5,5.5v12.6c4.2-2.7,9.9-5.9,18.3-5.9c5.7,0,9.4,2.7,9.4,7.5c0,5.1-3.1,7.8-9.5,7.8h-9.8v11.7h9.8
	c7.9,0,11.1,2.3,11.1,8.1C730.9,95.6,727.1,98.8,719.8,98.8z M757.3,44.4v65.4h23.5c15.2,0,26-7.8,26-23.1
	c0-14.6-9.6-22.2-25.7-22.2h-8.3v-20H757.3z M812.5,44.4v65.4H828V44.4H812.5z M779.9,97.5h-7.1V76.6h7.5c6.6,0,10.5,3,10.5,10.5
	S786.5,97.5,779.9,97.5z M879.3,109.8h17.5L872,74.5l21.8-30.2h-15.6l-21.8,30.2V44.4h-15.5v65.4h15.5V77.6L879.3,109.8z
	 M949.5,65.2c0-15.9-8.1-21.8-24.4-21.8c-10.3,0-18.3,3.2-23,6v12.9c4.2-3.1,13.3-6.5,21.2-6.5c7.4,0,10.8,2.6,10.8,9.6v3.6h-2.5
	c-23.7,0-34.2,7.8-34.2,21.1s8.1,20.7,20,20.7c9.1,0,13-3,16-6.1h0.6c0.1,1.7,0.7,3.9,1.2,5.2h15.1c-0.5-5.3-0.8-10.7-0.8-16V65.2z
	 M934,94.2c-1.9,2.9-5.6,5.2-11,5.2c-6.5,0-9.8-3.9-9.8-9.8c0-7.7,5.3-10.4,18.6-10.4h2.2V94.2z"/>
</svg>
