<svg width="203" height="28" fill="none" xmlns="http://www.w3.org/2000/svg"><path d="M11.233 22.894h3.986V0H9.42C3.591 0 .527 2.998.527 7.412c0 3.525 1.68 5.6 4.678 7.74L0 22.895h4.315l5.798-8.663-2.01-1.351C5.667 11.233 4.48 9.948 4.48 7.181c0-2.437 1.713-4.085 4.974-4.085h1.779v19.798zm76.852.33c1.812 0 3.096-.33 4.052-1.022v-3.195c-.989.692-2.175 1.12-3.822 1.12-2.8 0-3.953-2.174-3.953-5.6 0-3.59 1.417-5.435 3.986-5.435 1.516 0 2.998.527 3.788 1.02V6.787c-.823-.461-2.272-.79-4.216-.79-5.007 0-7.61 3.59-7.61 8.63 0 5.534 2.537 8.598 7.775 8.598zm-24.508-1.45V18.58c-1.22.823-3.262 1.548-5.172 1.548-2.866 0-3.953-1.35-4.118-4.118h9.454v-2.075c0-5.765-2.536-7.939-6.456-7.939-4.777 0-7.05 3.657-7.05 8.664 0 5.764 2.833 8.565 7.84 8.565 2.504 0 4.348-.66 5.502-1.45zM27.67 6.324v6.556h-5.238V6.325h-3.92v16.57h3.92v-6.918h5.238v6.917h3.92V6.324h-3.92zM49.28 19.799h-1.746V6.325h-11.43V7.74c0 4.052-.264 9.29-1.648 12.057h-1.218v6.884h3.623v-3.788h8.796v3.788h3.623v-6.884zm26.814 3.096h4.447l-6.292-8.927 5.535-7.642H75.83l-5.535 7.642V6.325h-3.92v16.57h3.92v-8.137l5.798 8.136zM57.22 9.092c1.943 0 2.536 1.614 2.536 3.69v.329h-5.468c.099-2.636 1.054-4.02 2.932-4.02zM43.614 19.798H38.08c1.087-2.504 1.384-7.017 1.384-9.883v-.494h4.15v10.377zM109.896 22.894h3.294L117.867 5.6v17.294h3.756V0h-5.172l-4.645 16.866L107.227 0h-5.27v22.894h3.261V5.6l4.678 17.294zM127.034 28c3.656 0 5.007-2.602 6.127-5.995l5.172-15.68h-3.789l-3.656 12.451-3.657-12.451h-4.117l5.699 17.294c-.429.79-1.055 1.285-2.142 1.285-.724 0-1.35-.231-1.778-.66v3.196s.593.56 2.141.56zM144.04 20.127c-2.009 0-3.986-.725-5.04-1.515v3.195c.758.626 2.668 1.417 5.501 1.417 4.184 0 6.391-1.878 6.391-5.205 0-1.944-1.219-3.261-3.393-3.722 2.042-.66 2.899-2.109 2.899-3.954 0-2.8-2.207-4.348-5.765-4.348-2.569 0-4.249.79-5.205 1.384v3.195c1.055-.692 2.504-1.482 4.645-1.482 1.45 0 2.372.692 2.372 1.91 0 1.285-.791 1.977-2.405 1.977h-2.47v2.965h2.47c2.01 0 2.8.592 2.8 2.042 0 1.317-.955 2.141-2.8 2.141zM153.524 6.325v16.57h5.962c3.854 0 6.588-1.977 6.588-5.864 0-3.69-2.437-5.633-6.522-5.633h-2.108V6.325h-3.92zm14 0v16.57h3.92V6.324h-3.92zm-8.268 13.473h-1.812v-5.304h1.91c1.68 0 2.669.758 2.669 2.668 0 1.91-1.087 2.636-2.767 2.636zM184.441 22.894h4.447l-6.292-8.927 5.534-7.642h-3.953l-5.534 7.642V6.325h-3.92v16.57h3.92v-8.137l5.798 8.136zM202.229 11.595c0-4.019-2.043-5.534-6.193-5.534-2.603 0-4.645.824-5.831 1.515v3.262c1.054-.79 3.36-1.647 5.37-1.647 1.877 0 2.734.658 2.734 2.437v.923h-.626c-5.995 0-8.664 1.976-8.664 5.336 0 3.36 2.043 5.238 5.073 5.238 2.306 0 3.294-.758 4.052-1.549h.165c.033.429.164.989.296 1.318h3.821a41.946 41.946 0 01-.197-4.052v-7.247zm-3.92 7.346c-.494.725-1.417 1.318-2.8 1.318-1.647 0-2.471-.988-2.471-2.47 0-1.944 1.351-2.636 4.711-2.636h.56v3.788z" fill="#fff"/></svg>